<svg xmlns="http://www.w3.org/2000/svg" width="100" height="100"><path d="M50 66.34c-7.715 0-13.99-6.276-13.99-13.99 0-7.715 6.275-13.99 13.99-13.99s13.99 6.275 13.99 13.99c0 7.713-6.275 13.99-13.99 13.99zm0-25.145c-6.15 0-11.154 5.003-11.154 11.154S43.85 63.5 50 63.5s11.153-5 11.153-11.15S56.15 41.195 50 41.195zM58.605 48a5.017 5.017 0 0 0-5.012-5.012 4.96 4.96 0 0 0-3.272 1.247L50 44.21c-4.49 0-8.14 3.65-8.14 8.14s3.65 8.142 8.14 8.142 8.14-3.652 8.14-8.14c0-.642-.083-1.26-.224-1.858.427-.74.69-1.583.69-2.494zm-2.836 0a2.18 2.18 0 0 1-2.176 2.177A2.18 2.18 0 0 1 51.418 48a2.176 2.176 0 1 1 4.35 0zm29.542 3.715c-.122-.245-1.214-2.35-3.6-5.032l1.973-2.056a1.418 1.418 0 1 0-2.046-1.964l-1.905 1.983c-.8-.76-1.695-1.538-2.695-2.312l1.576-2.2a1.42 1.42 0 1 0-2.307-1.653l-1.58 2.207a37.604 37.604 0 0 0-2.932-1.74l1.28-2.454a1.42 1.42 0 1 0-2.514-1.314l-1.316 2.525a40.504 40.504 0 0 0-3.068-1.215l.988-2.78a1.418 1.418 0 1 0-2.67-.953l-1.03 2.89c-1-.276-2.043-.525-3.126-.742l.646-3.117a1.418 1.418 0 1 0-2.778-.58l-.668 3.22a50.393 50.393 0 0 0-3.14-.344l.23-3.355a1.418 1.418 0 0 0-1.315-1.515c-.8-.056-1.46.536-1.514 1.317l-.235 3.41c-.52-.015-1.034-.032-1.567-.032l-1.565.03-.234-3.406a1.417 1.417 0 0 0-2.83.193l.232 3.357a51.21 51.21 0 0 0-3.14.344l-.668-3.217a1.418 1.418 0 1 0-2.778.576l.646 3.118a44.666 44.666 0 0 0-3.127.743l-1.028-2.888a1.42 1.42 0 1 0-2.673.95l.99 2.78a40.227 40.227 0 0 0-3.07 1.213l-1.316-2.523a1.42 1.42 0 0 0-2.516 1.312l1.28 2.456a38.004 38.004 0 0 0-2.933 1.74l-1.58-2.208a1.42 1.42 0 1 0-2.307 1.65l1.576 2.203a35.07 35.07 0 0 0-2.695 2.312l-1.902-1.982a1.42 1.42 0 0 0-2.048 1.964l1.973 2.056c-2.386 2.68-3.477 4.787-3.6 5.032-.2.4-.2.87 0 1.27.363.726 9.203 17.804 35.312 17.804 26.108 0 34.948-17.08 35.312-17.807.2-.4.2-.87 0-1.268zM50 67.952c-21.808 0-30.61-12.563-32.42-15.603C19.393 49.304 28.195 36.745 50 36.745c21.808 0 30.61 12.563 32.42 15.604C80.606 55.395 71.804 67.952 50 67.952z"/></svg>