<svg xmlns="http://www.w3.org/2000/svg" width="100" height="100"><path d="M94.37 53.85l-2.632-2.353a44.917 44.917 0 0 0 2.604-4.07 1.883 1.883 0 0 0 0-1.857C85.785 30.45 68.817 21.058 50.06 21.058c-18.76 0-35.728 9.393-44.284 24.512a1.883 1.883 0 0 0 0 1.856 44.89 44.89 0 0 0 2.56 4.006L5.63 53.85a1.885 1.885 0 0 0 2.51 2.81l2.52-2.252c.485.57.983 1.128 1.494 1.673l-2.72 2.678a1.883 1.883 0 0 0 1.322 3.228c.477 0 .955-.18 1.322-.54l2.757-2.713c.553.503 1.122.99 1.7 1.467l-2.212 2.827a1.885 1.885 0 0 0 2.97 2.322l2.236-2.86c.993.7 2.012 1.367 3.06 1.995l-1.833 3.155a1.884 1.884 0 0 0 3.26 1.893l1.878-3.235c.877.44 1.766.86 2.67 1.252l-1.396 3.433a1.884 1.884 0 1 0 3.49 1.42l1.418-3.488c1.05.367 2.117.702 3.197 1.005l-.945 3.72a1.886 1.886 0 0 0 1.828 2.35c.84 0 1.608-.57 1.825-1.422l.956-3.76c.867.178 1.742.34 2.624.477l-.502 4.2a1.884 1.884 0 0 0 1.647 2.094l.225.013c.94 0 1.754-.704 1.87-1.66l.446-4.202c.952.082 2.098.143 2.816.175v5.154c0 1.04.756 1.883 1.796 1.883s1.796-.844 1.796-1.884v-5.155c1.437-.03 1.983-.09 2.895-.165l.573 4.192c.114.957.963 1.66 1.904 1.66l.244-.013a1.892 1.892 0 0 0 1.656-2.096l-.496-4.184c.883-.135 1.76-.294 2.63-.47l.952 3.736a1.886 1.886 0 0 0 3.655-.928l-.937-3.69c1.083-.3 2.15-.634 3.204-1l1.405 3.453a1.886 1.886 0 0 0 2.455 1.036 1.884 1.884 0 0 0 1.035-2.455l-1.38-3.39c.91-.39 1.802-.81 2.68-1.25l1.854 3.19a1.883 1.883 0 0 0 2.577.684 1.884 1.884 0 0 0 .683-2.576l-1.8-3.1a49.537 49.537 0 0 0 3.07-1.997l2.196 2.807a1.88 1.88 0 0 0 2.645.323c.82-.64.965-1.825.324-2.645l-2.164-2.768c.58-.48 1.153-.966 1.71-1.47l2.7 2.657c.368.36.845.54 1.322.54a1.883 1.883 0 0 0 1.32-3.228l-2.656-2.615a45.757 45.757 0 0 0 1.5-1.674l2.453 2.193a1.883 1.883 0 0 0 2.661-.152 1.887 1.887 0 0 0-.153-2.66zM50.06 68.17c-17.013 0-32.41-8.277-40.463-21.672.234-.39.476-.773.722-1.154 9.383 11.285 24.037 17.953 39.74 17.953 15.7 0 30.355-6.668 39.74-17.952.245.38.487.764.72 1.153-8.052 13.394-23.45 21.67-40.46 21.67zm0-43.343c15.088 0 28.9 6.514 37.45 17.33-8.635 10.894-22.513 17.37-37.45 17.37-14.94 0-28.818-6.477-37.452-17.37 8.55-10.816 22.363-17.33 37.452-17.33z"/></svg>