<svg width="22" height="22" xmlns="http://www.w3.org/2000/svg"><path d="M0 11C0 4.925 4.925 0 11 0s11 4.925 11 11-4.925 11-11 11S0 17.075 0 11zm21 0c0-5.523-4.477-10-10-10S1 5.477 1 11s4.477 10 10 10 10-4.477 10-10zM5.5 11l3 4h1l-2.75-3.502h9.75V10.5H6.75L9.5 7h-1l-3 4z" fill="#fff"/><path d="M0 11C0 4.925 4.925 0 11 0s11 4.925 11 11-4.925 11-11 11S0 17.075 0 11zm21 0c0-5.523-4.477-10-10-10S1 5.477 1 11s4.477 10 10 10 10-4.477 10-10zM5.5 11l3 4h1l-2.75-3.502h9.75V10.5H6.75L9.5 7h-1l-3 4z" fill="#fff"/></svg>