<svg clip-rule="evenodd" fill-rule="evenodd" image-rendering="optimizeQuality" shape-rendering="geometricPrecision" text-rendering="geometricPrecision" viewBox="0 0 500 500" xmlns="http://www.w3.org/2000/svg"><defs><linearGradient gradientUnits="userSpaceOnUse" id="b" x1="250" x2="250" y1="350" y2="150"><stop offset="0" stop-color="#DDDEDE"/><stop offset="1" stop-color="#B3B4B4"/></linearGradient><linearGradient gradientUnits="userSpaceOnUse" id="c" x1="250" x2="250" y1="190" y2="310"/><radialGradient cy="48%" fx="50%" fy="48%" id="a"><stop offset="0" stop-color="#0af"/><stop offset="1" stop-color="#008BFF"/></radialGradient></defs><path d="M333 385l41 29c3 2 6 3 9 0l31-31c3-3 2-6 0-9l-29-41c9-14 15-30 19-46l50-8c3-1 6-3 6-7v-44c0-4-3-6-6-7l-50-8c-4-16-11-32-19-45l29-42c2-3 3-6 0-9l-31-31c-3-3-6-2-9 0l-42 29c-14-8-29-15-45-19l-8-50c-1-3-3-6-7-6h-44c-4 0-6 3-7 6l-8 50c-16 4-31 11-45 19l-42-29c-3-2-6-3-9 0l-31 31c-3 3-2 6 0 9l29 42c-8 13-15 29-19 45l-50 8c-3 1-6 3-6 7v44c0 4 3 6 6 7l50 8c4 16 10 32 19 46l-29 41c-2 3-3 6 0 9l31 31c3 3 6 2 9 0l41-29c14 9 30 15 46 19l8 50c1 3 3 6 7 6h44c4 0 6-3 7-6l8-50c16-4 32-10 46-19zm-83-185c-28 0-50 22-50 50s22 50 50 50 50-22 50-50-22-50-50-50z" fill="url(#a)" stroke="#434242" stroke-width="10" stroke-linejoin="round"/><path d="M250 150c-55 0-100 45-100 100s45 100 100 100 100-45 100-100-45-100-100-100zm0 50c-28 0-50 22-50 50s22 50 50 50 50-22 50-50-22-50-50-50z" fill="url(#b)"/><path d="M250 310c33 0 60-27 60-60s-27-60-60-60-60 27-60 60 27 60 60 60zm0-110c-28 0-50 22-50 50s22 50 50 50 50-22 50-50-22-50-50-50z" fill="url(#c)"/><circle cx="250" cy="250" r="100" fill="none" stroke="#434242" stroke-width="5"/></svg>