<svg clip-rule="evenodd" fill-rule="evenodd" image-rendering="optimizeQuality" shape-rendering="geometricPrecision" text-rendering="geometricPrecision" viewBox="0 0 500 500" xmlns="http://www.w3.org/2000/svg"><defs><style>.str0{stroke:#434242;stroke-width:10;stroke-linecap:round;stroke-linejoin:round}.fil2{fill:#434242}</style></defs><g id="Layer_x0020_1"><path class="str0" d="M190 30h140c11 0 20 9 20 20v400c0 11-9 20-20 20H50c-11 0-20-9-20-20V190L190 30z" fill="#fff"/><path class="str0" d="M160 190H30L190 30v130c0 17-14 30-30 30z" fill="#fefefe"/><path class="fil2" d="M400 88l64 63c6 6 6 16 0 22L262 374l-127 43 42-128L379 88c6-6 15-6 21 0z" stroke="#434242" stroke-width="15" stroke-linejoin="round"/><path transform="matrix(-2.12132 -2.12132 .06364 -.06364 424.937 211.559)" fill="#979798" d="M0 0h40v220H0z"/><path fill="#cdcdce" d="M177 289l85 85-127 43z"/><path transform="rotate(45 -22.781 570.443)" fill="#0075d8" d="M0 0h40v230H0z"/><path transform="rotate(45 -2.785 522.15)" fill="#008bff" d="M0 0h40v230H0z"/><path transform="rotate(45 17.207 473.858)" fill="#289cff" d="M0 0h40v230H0z"/><path class="fil2" d="M135 417l66-23c-3-10-9-19-17-27-7-8-17-13-27-17l-22 67z" stroke="#434242" stroke-width="5"/></g></svg>