<svg clip-rule="evenodd" fill-rule="evenodd" image-rendering="optimizeQuality" shape-rendering="geometricPrecision" text-rendering="geometricPrecision" viewBox="0 0 5000 5000" xmlns="http://www.w3.org/2000/svg"><defs><style>.str0{stroke:#434242;stroke-width:100}</style><radialGradient cx="48%" fx="48%" fy="50%" id="id0"><stop offset="0" stop-color="#0af"/><stop offset="1" stop-color="#008BFF"/></radialGradient><radialGradient fx="50%" fy="50%" id="id1" r="38%"><stop offset="0" stop-color="#FEFEFE"/><stop offset="1" stop-color="#fff"/></radialGradient><radialGradient fx="50%" fy="50%" id="id2" r="38%"><stop offset="0" stop-color="#fff"/><stop offset="1" stop-color="#FCFCFD"/></radialGradient></defs><g id="Layer_x0020_1"><path class="str0" d="M300 2500c0 1215 985 2200 2200 2200s2200-985 2200-2200S3715 300 2500 300 300 1285 300 2500z" fill="url(#id0)"/><path class="str0" d="M2564 3250h-128c-15-201-61-444-138-730l-157-576c-94-344-141-592-141-742 0-135 46-245 138-328s213-124 361-124c144 0 264 41 359 125s142 191 142 319c0 134-50 384-151 750l-161 576c-56 205-97 448-124 730z" fill="url(#id2)"/><circle class="str0" cx="2500" cy="3800" r="400" fill="url(#id1)"/></g></svg>