<svg clip-rule="evenodd" fill-rule="evenodd" image-rendering="optimizeQuality" shape-rendering="geometricPrecision" text-rendering="geometricPrecision" viewBox="0 0 5000 5000" xmlns="http://www.w3.org/2000/svg"><defs><linearGradient gradientUnits="userSpaceOnUse" id="a" x1="2500.01" x2="2500.01" y1="4260.19" y2="1474.81"><stop offset="0" stop-color="#008BFF"/><stop offset="1" stop-color="#0af"/></linearGradient></defs><path d="M300 2000L2350 400c100-50 200-50 300 0l2050 1500" fill="none" stroke="#434242" stroke-width="300" stroke-linecap="round"/><path d="M3500 1022l600 439V600c0-55-45-100-100-100h-400c-55 0-100 45-100 100v422z" fill="#434242"/><path d="M899 4700h901V3200c0-110 90-200 200-200h900c110 0 200 90 200 200v1500h1001c165 0 300-135 300-300l-1-2000-1776-1328c-33-26-79-37-124-36s-92 14-127 40L600 2400l-1 2000c0 165 135 300 300 300z" fill="url(#a)" stroke="#434242" stroke-width="100"/></svg>