<svg clip-rule="evenodd" fill-rule="evenodd" image-rendering="optimizeQuality" shape-rendering="geometricPrecision" text-rendering="geometricPrecision" viewBox="0 0 500 500" xmlns="http://www.w3.org/2000/svg"><defs><radialGradient cx="250" cy="160.96" fx="250" fy="160.96" gradientUnits="userSpaceOnUse" id="a" r="109.65"><stop offset="0" stop-color="#FEFEFE"/><stop offset="1" stop-color="#fff"/></radialGradient></defs><path d="M207 373h86c2 0 5 3 5 6v5c0 3-2 5-5 6l-85 9c-1 0-3 0-4-1s-2-3-2-4v-15c0-3 3-6 5-6zm86 38l-85 9c-1 1-3 0-4-1s-2-2-2-4v-5c0-3 2-5 5-5l85-10c1 0 3 0 4 1s2 3 2 4v6c0 2-2 5-5 5zm0 21l-85 10c-1 0-3-1-4-2s-2-2-2-4v-5c0-3 2-5 5-5l85-10c1 0 3 1 4 2s2 2 2 4v5c0 3-2 5-5 5zm-16 13v8c0 6-5 9-11 10-11 4-21 4-32 0-6-1-11-4-11-10v-3c0-3 2-5 5-5l43-5c1 0 3 0 4 1s2 3 2 4z" fill="#279DFF" stroke="#434242" stroke-width="15"/><path d="M207 373h86c2 0 5 3 5 6v5c0 3-2 5-5 6l-85 9c-1 0-3 0-4-1s-2-3-2-4v-15c0-3 3-6 5-6zm86 38l-85 9c-1 1-3 0-4-1s-2-2-2-4v-5c0-3 2-5 5-5l85-10c1 0 3 0 4 1s2 3 2 4v6c0 2-2 5-5 5zm0 21l-85 10c-1 0-3-1-4-2s-2-2-2-4v-5c0-3 2-5 5-5l85-10c1 0 3 1 4 2s2 2 2 4v5c0 3-2 5-5 5zm-16 13v8c0 6-5 9-11 10-11 4-21 4-32 0-6-1-11-4-11-10v-3c0-3 2-5 5-5l43-5c1 0 3 0 4 1s2 3 2 4z" fill="#279DFF"/><path d="M250 31c75 0 136 60 136 135 0 109-72 69-72 191 0 9-7 16-16 16h-96c-9 0-16-7-16-16 0-122-72-82-72-191 0-75 61-135 136-135z" fill="url(#a)" stroke="#434242" stroke-width="10"/><path d="M271 373v-63c0-6-5-11-10-11h-22c-5 0-10 5-10 11v63m10-74l-53-138m75 138l53-138m0 0c-21 14-21-14-43 0h-42c-22 14-22-14-43 0" fill="none" stroke="#434242" stroke-linecap="round" stroke-width="10"/></svg>