<svg clip-rule="evenodd" fill-rule="evenodd" image-rendering="optimizeQuality" shape-rendering="geometricPrecision" text-rendering="geometricPrecision" viewBox="0 0 5000 5000" xmlns="http://www.w3.org/2000/svg"><defs><style>.str0{stroke:#434242;stroke-width:100}</style><linearGradient gradientUnits="userSpaceOnUse" id="id0" x1="2577.29" x2="2577.29" y1="4066.02" y2="2434.02"><stop offset="0" stop-color="#008BFF"/><stop offset="1" stop-color="#0af"/></linearGradient><linearGradient gradientUnits="userSpaceOnUse" id="id1" x1="3540.01" x2="1459.99" y1="1850.01" y2="1850.01"><stop offset="0" stop-color="#FCFCFD"/><stop offset="1" stop-color="#fff"/></linearGradient></defs><g id="Layer_x0020_1"><path class="str0" d="M500 2800V1000c0-55 45-100 100-100h1400l400 300h2000c55 0 100 45 100 100v1500H500z" fill="url(#id1)"/><path class="str0" d="M601 4100h3798c55 0 91-46 100-100l250-1500c9-54-45-100-100-100H3050l-400 300H501c-55 0-105 45-100 100l100 1200c4 55 45 100 100 100z" fill="url(#id0)"/><path d="M800 1100h1100c55 0 100 45 100 100s-45 100-100 100H800c-55 0-100-45-100-100s45-100 100-100z" fill="#434242"/></g></svg>