<svg clip-rule="evenodd" fill-rule="evenodd" image-rendering="optimizeQuality" shape-rendering="geometricPrecision" text-rendering="geometricPrecision" viewBox="0 0 500 500" xmlns="http://www.w3.org/2000/svg"><defs><linearGradient gradientUnits="userSpaceOnUse" id="a" x1="249.9" x2="290.1" y1="289.89" y2="249.69"><stop offset="0" stop-color="#979798"/><stop offset=".41" stop-color="#C5C5C5"/><stop offset=".6" stop-color="#fff"/><stop offset=".72" stop-color="#CDCDCE"/><stop offset="1" stop-color="#787879"/></linearGradient><linearGradient gradientUnits="userSpaceOnUse" id="b" x1="385.36" x2="335.93" y1="335.73" y2="385.15"><stop offset="0" stop-color="#434242"/><stop offset=".48" stop-color="#545454"/><stop offset="1" stop-color="#434242"/></linearGradient><radialGradient cx="165" cy="165" fx="165" fy="165" gradientUnits="userSpaceOnUse" id="c" r="109.29"><stop offset="0" stop-color="#4EAFFF"/><stop offset=".58" stop-color="#4EAFFF"/><stop offset="1" stop-color="#0076D8"/></radialGradient></defs><path fill="url(#a)" d="M234 269l35-35 33 33-35 35z"/><path d="M258 307l2-12 35-35 12-3 143 143c14 14 14 36 0 50-14 13-36 13-49 0L258 307z" fill="url(#b)"/><circle fill="#434242" r="127" stroke="#2B2A29" stroke-width=".1" transform="rotate(-45 281.674 -116.67) scale(1.014)"/><path d="M88 88c42-43 112-43 154 0 43 42 43 112 0 154-42 43-112 43-154 0-43-42-43-112 0-154z" fill="url(#c)"/><path d="M93 184c-7-25 0-53 19-72 14-14 33-22 53-22" fill="none" stroke="#FEFEFE" stroke-linecap="round" stroke-width="15"/></svg>