<svg clip-rule="evenodd" fill-rule="evenodd" image-rendering="optimizeQuality" shape-rendering="geometricPrecision" text-rendering="geometricPrecision" viewBox="0 0 500 500" xmlns="http://www.w3.org/2000/svg"><circle cx="250" cy="250" fill="#fff" r="200" stroke="#434242" stroke-width="40"/><path d="M182 270c2 17 8 32 17 43 12 15 29 22 51 22s39-7 52-22c12-15 18-36 18-63s-6-48-18-63c-13-15-30-22-52-22s-39 7-51 22c-7 8-11 17-14 27h11c2 0 4 2 5 4s1 4-1 6l-14 14-20 19c-2 3-5 3-7 0l-20-19-14-14c-2-2-2-4-1-6s3-4 5-4h15c5-20 14-38 26-52 20-21 47-32 80-32s60 11 79 32c20 22 30 51 30 88s-10 66-30 88c-19 21-46 32-79 32s-60-11-80-32c-16-18-25-41-28-68h40z" fill="#279DFF"/></svg>