<svg viewBox="0 0 103 192" xmlns="http://www.w3.org/2000/svg"><g fill="none" fill-rule="evenodd"><path d="M100.529 66.134c-4.943 8.605-13.773 22.054-13.773 22.054l-20.676.013-.33 8.212-11.229-18.95 12.621-16.927-.264 7.81 17.621.163-14.835-26.864 18.222-9.648 13.668 24.733c1.343 2.431 1.003 5.883-1.025 9.404zM54.74 32l7.32-4.121-9.22-14.699-15.383 26.574-18.028-9.987 14.154-24.47c1.388-2.4 4.562-3.95 8.684-4.145C52.342.68 68.677.86 68.677.86l10.992 17.133 7.289-4.086L76.516 33.28 54.74 32zm-28.766 7.94l9.994 19.406-7.68-4.434-8.529 15.092 31.21.01V90.28H22.237c-2.824 0-5.767-1.933-7.967-5.348C8.89 76.58.998 62.583.998 62.583l9.828-17.797L3.6 40.592l22.375-.652z" fill="#9CA3AE"/><path d="M100.529 161.592c-4.943 8.606-13.773 22.055-13.773 22.055l-20.676.012-.33 8.212-11.229-18.95 12.621-16.926-.264 7.809 17.621.163-14.835-26.864 18.222-9.648 13.668 24.734c1.343 2.43 1.003 5.883-1.025 9.403zM54.74 127.459l7.32-4.122-9.221-14.698-15.383 26.573-18.028-9.987 14.154-24.469c1.388-2.401 4.562-3.95 8.684-4.146 10.075-.472 26.41-.29 26.41-.29l10.992 17.133 7.289-4.086-10.442 19.37-21.775-1.278zm-28.766 7.94l9.994 19.405-7.68-4.434-8.529 15.092 31.21.01v20.267H22.237c-2.824 0-5.767-1.932-7.967-5.347C8.89 172.038.998 158.04.998 158.04l9.828-17.796L3.6 136.05l22.375-.652z" fill="#2DCC72"/></g></svg>