<svg viewBox="45.6 168.9 504 504" xmlns="http://www.w3.org/2000/svg"><path d="M449.3 351h70v279.9h-70zM356 444.3h70v186.6h-70zm-93.4-46.7h70v233.3h-70zm-93.3 116.7h70v116.6h-70zM76 467.6h70v163.3H76z" fill="#00BCD4"/><g fill="#3F51B5"><circle cx="111" cy="327.6" r="35"/><circle cx="204.3" cy="351" r="35"/><circle cx="297.6" cy="269.3" r="35"/><circle cx="390.9" cy="292.6" r="35"/><circle cx="484.3" cy="246" r="35"/><path d="M473.8 225l-85.2 43.2-96.8-24.5-93.3 81.6-81.6-19.8-11.7 44.3 105 26.8 93.3-81.6 89.8 22.1L494.8 267z"/></g></svg>