<svg viewBox="0 0 349 372" xmlns="http://www.w3.org/2000/svg"><path d="M348.059 309.293c0 42.781-109.396 62.338-174.177 62.338-64.781 0-173.565-19.557-173.565-62.338 0-6.723 2.445-12.834 7.334-18.334C66.932 169.342 51.654 112.505 84.045 67.28c14.667-20.168 31.779-33.002 59.28-39.113C144.548 12.277 157.382.055 173.883.055c15.89 0 29.335 12.223 30.558 28.112 27.501 6.111 44.613 18.945 59.281 39.113 32.391 45.225 17.111 102.062 76.393 223.679 4.888 5.5 7.944 11.612 7.944 18.334zm-36.058-12.222c-25.057-29.945-89.838-36.057-138.119-36.057-47.669 0-113.062 6.111-138.118 36.057 25.057 29.947 90.449 37.279 138.118 36.67 48.281 0 113.062-6.114 138.119-36.67zm-165.62-14.668c0-3.666 18.945-4.277 27.501-4.277 21.39 0 27.502 1.834 27.502 4.277 0 17.113-12.224 30.559-27.502 30.559-15.278 0-27.501-13.446-27.501-30.559z" fill="#F4B300" fill-rule="evenodd"/></svg>