<svg viewBox="45.6 168.9 504 504" xmlns="http://www.w3.org/2000/svg"><path d="M297.6 212c-114.9 0-209 94-209 209s94 209 209 209 209-94 209-209-94-209-209-209z" fill="#7CB342"/><path d="M517.1 420.9c0 122.3-99.3 219.4-219.4 219.4S78.2 543.2 78.2 420.9s97.2-219.4 219.4-219.4 219.5 97.2 219.5 219.4zM295.6 522.3c0-4.2-2.1-6.3-6.3-8.4-13.6-4.2-26.1-4.2-37.6-15.7-2.1-4.2-2.1-8.4-4.2-13.6-4.2-4.2-15.7-6.3-21.9-8.4h-43.9c-6.3-2.1-11.5-11.5-15.7-17.8 0-2.1 0-6.3-4.2-6.3-4.2-2.1-8.4 2.1-13.6 0-2.1-2.1-2.1-4.2-2.1-6.3 0-6.3 4.2-13.6 8.4-17.8 6.3-4.2 13.6 2.1 19.9 2.1 2.1 0 2.1 0 4.2 2.1 6.3 2.1 8.4 10.4 8.4 17.8v4.2c0 2.1 2.1 2.1 4.2 2.1 2.1-11.5 2.1-21.9 4.2-33.4 0-13.6 13.6-26.1 24-30.3 4.2-2.1 6.3 2.1 11.5 0 13.6-4.2 46-17.8 39.7-35.5-4.2-15.7-17.8-30.3-35.5-28.2-4.2 2.1-6.3 4.2-10.4 6.3-6.3 4.2-19.9 17.8-26.1 17.8-11.5-2.1-11.5-17.8-8.4-24 2.1-8.4 21.9-37.6 35.5-32.4l8.4 8.4c4.2 2.1 11.5 2.1 17.8 2.1 2.1 0 4.2 0 6.3-2.1 2.1-2.1 2.1-2.1 2.1-4.2 0-6.3-6.3-13.6-10.4-17.8-4.2-4.2-11.5-8.4-17.8-11.5-21.9-6.3-57.5 2.1-74.2 17.8-16.7 15.7-30.3 41.8-39.7 63.7-4.2 13.6-8.4 30.3-10.4 46-2.1 10.4-4.2 19.9 2.1 30.3 6.3 13.6 19.9 26.1 33.4 35.5 8.4 6.3 26.1 6.3 35.5 17.8 6.3 8.4 4.2 19.9 4.2 30.3 0 13.6 8.4 24 13.6 35.5 2.1 6.3 4.2 15.7 6.3 21.9 0 2.1 2.1 15.7 2.1 17.8 13.6 6.3 24 13.6 39.7 17.8 2.1 0 10.4-13.6 10.4-15.7 6.3-6.3 11.5-15.7 17.8-19.9 4.2-2.1 8.4-4.2 13.6-8.4 4.2-4.2 6.3-13.6 8.4-19.9.7-5.1 2.7-13.4.7-19.7zm4.1-202.7c2.1 0 4.2-2.1 8.4-4.2 6.3-4.2 13.6-11.5 19.9-15.7 6.3-4.2 13.6-11.5 17.8-15.7 6.3-4.2 11.5-13.6 13.6-19.9 2.1-4.2 8.4-13.6 6.3-19.9-2.1-4.2-13.6-6.3-17.8-8.4-17.8-4.2-32.4-6.3-50.2-6.3-6.3 0-15.7 2.1-17.8 8.4-2.1 11.5 6.3 8.4 15.7 11.5 0 0 2.1 17.8 2.1 19.9 2.1 10.4-4.2 17.8-4.2 28.2 0 6.3 0 17.8 4.2 21.9l2 .2zm183.9 153.6c2.1-4.2 2.1-11.5 4.2-15.7 2.1-10.4 2.1-21.9 2.1-32.4 0-21.9-2.1-43.9-8.4-63.7-4.2-6.3-6.3-13.6-8.4-19.9-4.2-11.5-10.4-21.9-19.9-30.3-8.4-11.5-19.9-41.8-39.7-32.4-6.3 2.1-10.4 10.4-15.7 15.7-4.2 6.3-8.4 13.6-13.6 19.9-2.1 2.1-4.2 6.3-2.1 8.4 0 2.1 2.1 2.1 4.2 2.1 4.2 2.1 6.3 2.1 10.4 4.2 2.1 0 4.2 2.1 2.1 4.2 0 0 0 2.1-2.1 2.1-10.4 11.5-21.9 19.9-32.4 30.3-2.1 2.1-4.2 6.3-4.2 8.4 0 2.1 2.1 2.1 2.1 4.2s-2.1 2.1-4.2 4.2c-4.2 2.1-8.4 4.2-11.5 6.3-2.1 4.2 0 11.5-2.1 15.7-2.1 11.5-8.4 19.9-13.6 30.3-4.2 6.3-6.3 13.6-10.4 19.9 0 8.4-2.1 15.7 2.1 21.9 10.4 15.7 30.3 6.3 46 13.6 4.2 2.1 8.4 2.1 11.5 6.3 6.3 6.3 6.3 17.8 8.4 24 2.1 8.4 4.2 17.8 8.4 26.1 2.1 10.4 6.3 21.9 8.4 30.3 19.9-15.7 37.6-32.4 50.2-54.3 15.7-13.9 22-31.6 28.2-49.4z" fill="#0277BD"/></svg>