<svg viewBox="45.6 168.9 504 504" xmlns="http://www.w3.org/2000/svg"><g fill="#616161"><path d="M526.96 617.692l-32.384 32.385-137.673-137.673 32.386-32.385z"/><circle cx="251.8" cy="375.2" r="183.2"/></g><path fill="#37474F" d="M526.414 618.053l-32.385 32.385-99.56-99.56 32.386-32.385z"/><circle cx="251.8" cy="375.2" fill="#64B5F6" r="148.9"/><path d="M330.9 308.7c-19.5-22.9-48.1-36.6-79-36.6s-59.6 13.7-79 36.6c-4.6 4.6-3.4 12.6 1.1 16 4.6 4.6 12.6 3.4 16-1.1 16-18.3 37.8-28.6 61.8-28.6s45.8 10.3 61.8 28.6c2.3 2.3 5.7 4.6 9.2 4.6 2.3 0 5.7-1.1 6.9-2.3 4.6-4.6 4.6-12.6 1.2-17.2z" fill="#BBDEFB"/></svg>