<svg viewBox="0 0 112 117" xmlns="http://www.w3.org/2000/svg"><g fill="none" fill-rule="evenodd"><path d="M107.44 28H86v12c0 5.514-4.486 10-10 10s-10-4.486-10-10V28H46v12c0 5.514-4.486 10-10 10s-10-4.486-10-10V28H4.561c-1.157 0-2.26.547-3.03 1.504-.771.957-1.136 2.233-1.004 3.507l7.195 69.769c.134 7.866 5.951 14.22 13.083 14.22h70.391c7.131 0 12.948-6.354 13.083-14.221l7.195-69.769c.131-1.273-.234-2.549-1.005-3.506-.77-.957-1.873-1.504-3.029-1.504z" fill="#439FDE"/><path d="M36 44c2.206 0 4-1.794 4-4V18c0-6.177 6.229-10 12-10h10c6.074 0 10 3.925 10 10v22c0 2.206 1.795 4 4 4s4-1.794 4-4V18C80 7.57 72.43 0 62 0H52C40.972 0 32 8.075 32 18v22c0 2.206 1.794 4 4 4z" fill="#CCCCCB"/></g></svg>