<svg viewBox="45.6 168.9 504 504" xmlns="http://www.w3.org/2000/svg"><path d="M471.3 210.1H124c-13.6 0-24.8 11.2-24.8 24.8v74.4c0 13.6 11.2 24.8 24.8 24.8h347.2c13.6 0 24.8-11.2 24.8-24.8v-74.4c.1-13.6-11.1-24.8-24.7-24.8zm0 148.8H124c-13.6 0-24.8 11.2-24.8 24.8v74.4c0 13.6 11.2 24.8 24.8 24.8h347.2c13.6 0 24.8-11.2 24.8-24.8v-74.4c.1-13.6-11.1-24.8-24.7-24.8zm0 148.9H124c-13.6 0-24.8 11.2-24.8 24.8V607c0 13.6 11.2 24.8 24.8 24.8h347.2c13.6 0 24.8-11.2 24.8-24.8v-74.4c.1-13.7-11.1-24.8-24.7-24.8z" fill="#D1C4E9"/></svg>