<svg viewBox="45.6 168.9 504 504" xmlns="http://www.w3.org/2000/svg"><path d="M520.9 483H258c-6.2 0-12.4-2.5-17.4-7.4l-45.9-45.9c-5-5-5-12.4 0-17.4l45.9-45.9c5-5 11.2-7.4 17.4-7.4h262.9c7.4 0 12.4 5 12.4 12.4v99.2c0 7.4-5 12.4-12.4 12.4z" fill="#3F51B5"/><path fill="#CFD8DC" d="M111.6 197.7h24.8v446.5h-24.8z"/><g fill="#90A4AE"><circle cx="124" cy="247.3" r="37.2"/><circle cx="124" cy="420.9" r="37.2"/><circle cx="124" cy="594.6" r="37.2"/></g><path d="M421.7 656.6H258c-6.2 0-12.4-2.5-17.4-7.4l-45.9-45.9c-5-5-5-12.4 0-17.4l45.9-45.9c5-5 11.2-7.4 17.4-7.4h163.7c7.4 0 12.4 5 12.4 12.4v99.2c0 7.4-5 12.4-12.4 12.4z" fill="#448AFF"/><path d="M434.1 309.3H258c-6.2 0-12.4-2.5-17.4-7.4L194.7 256c-5-5-5-12.4 0-17.4l45.9-45.9c5-5 11.2-7.4 17.4-7.4h176.1c7.4 0 12.4 5 12.4 12.4v99.2c0 7.5-5 12.4-12.4 12.4z" fill="#00BCD4"/></svg>