<svg viewBox="45.6 168.9 504 504" xmlns="http://www.w3.org/2000/svg"><path d="M483.7 321.7v86.8h-74.4v-86.8h-24.8v86.8H310v-86.8h-24.8v86.8h-86.8v24.8h86.8v74.4h-86.8v24.8h86.8V607h-86.8v24.8h310v-310h-24.7zm0 111.6v74.4h-74.4v-74.4h74.4zm-173.7 0h74.4v74.4H310v-74.4zm0 99.3h74.4V607H310v-74.4zm99.3 74.4v-74.4h74.4V607h-74.4z" fill="#90CAF9"/><path fill="#00BCD4" d="M496.1 222.5H99.2v396.9h99.2V321.7h297.7z"/><path d="M86.8 210.1v421.7h124V334.1h297.6v-124H86.8zm24.8 198.4v-74.4H186v74.4h-74.4zm74.4 24.8v74.4h-74.4v-74.4H186zm24.8-198.4h74.4v74.4h-74.4v-74.4zm99.2 0h74.4v74.4H310v-74.4zm-124 0v74.4h-74.4v-74.4H186zM111.6 607v-74.4H186V607h-74.4zm372.1-297.7h-74.4v-74.4h74.4v74.4z" fill="#0097A7"/></svg>