<svg viewBox="0 0 88 92" xmlns="http://www.w3.org/2000/svg"><path d="M70 56c-3.656 0-7.152 1.116-10.192 3.252L35.964 46.104c.02-.252.036-.512.036-.764 0-.14-.004-.276-.012-.416L59.52 32.556C62.616 34.812 66.212 36 70 36c9.924 0 18-8.08 18-18S79.924 0 70 0c-9.92 0-18 8.08-18 18 0 .14.004.272.012.416L28.48 30.78c-3.096-2.252-6.692-3.44-10.48-3.44-9.924 0-18 8.076-18 18 0 9.916 8.076 18 18 18 3.656 0 7.152-1.112 10.192-3.252l23.844 13.148c-.02.252-.036.508-.036.764 0 9.92 8.08 18 18 18s18-8.08 18-18-8.08-18-18-18z" fill="#C199E4" fill-rule="evenodd"/></svg>