<svg xmlns="http://www.w3.org/2000/svg" viewBox="0 0 772 441"><g fill="none"><path fill="#135191" d="M1.815 304.169H93.52v27.558H36.442l-.381 25.624h56.697v26.35H35.681v25.625h56.696v27.558H.674l1.142-132.715m115.628-11.121h33.485l-.761 143.836h-33.485l.761-143.836M240.1 376.449c0-9.912-4.565-18.856-15.6-18.856-10.655 0-18.646 9.428-20.929 18.856h36.53zm24.734 49.556c-11.415 9.67-28.538 14.505-44.14 14.505-35.007 0-50.989-25.141-50.989-49.799 0-29.25 22.07-53.908 52.13-53.908 36.91 0 48.326 26.108 48.326 59.227h-66.97c0 7.494 4.947 20.306 23.211 20.306 11.796 0 18.265-3.626 27.397-9.67l11.035 19.34zm106.663 4.352c-9.513 5.802-24.353 10.153-35.769 10.153-30.44 0-52.51-17.89-52.51-49.557 0-32.635 21.689-54.15 54.794-54.15 11.415 0 25.494 3.627 32.724 8.461l-10.655 21.757c-4.946-1.934-10.274-3.626-15.6-3.626-16.743 0-27.778 9.911-27.778 25.866 0 13.78 10.654 24.658 24.733 24.658 6.469 0 12.557-2.901 17.884-5.56l12.177 21.998m11.891-90.17h14.46l.761-32.634h31.964l-.762 32.635h27.397l-.38 24.174H429.43c0 13.537-1.142 27.8-1.142 36.019 0 8.46 2.283 12.329 9.894 12.329 4.566 0 8.37-2.176 12.176-4.593l7.23 22.723c-9.894 5.802-21.69 9.67-33.105 9.67-27.017 0-28.158-17.164-28.158-39.404 0-11.845.762-23.932.762-36.744h-14.46l.762-24.174m90.935 0h33.485v13.779h.381c4.947-8.22 11.415-16.438 24.353-16.438 3.805 0 7.61.483 11.035 1.208l-4.566 32.877c-3.044-.968-6.85-1.692-11.796-1.692-11.035 0-19.787 9.186-19.787 11.12l-.38 55.842h-33.486l.761-96.696m128.944 74.94c15.982 0 20.928-13.78 20.928-26.592 0-12.57-4.946-26.35-20.928-26.35-15.982 0-20.548 13.78-20.548 26.35 0 12.812 4.566 26.591 20.548 26.591zm0-78.325c35.768 0 54.033 22.724 54.033 51.733 0 29.25-18.265 51.974-54.033 51.974-35.769 0-54.033-22.724-54.033-51.974 0-29.009 18.264-51.733 54.033-51.733zm72.438 3.385h33.486v10.636c7.61-7.493 19.025-14.02 31.202-14.02 20.548 0 31.582 11.361 31.582 37.71 0 19.824-.38 41.097-.38 62.37H738.11c.381-18.614.381-37.228.381-57.293 0-7.977-1.902-14.02-12.176-14.02-5.328 0-12.938 4.593-17.123 8.702l-.762 62.61h-33.485l.761-96.695M275.595 143.034L317.473 3.851h38l-42.265 139.183h-37.613M258.534 3.85l-33.735 59.123c-8.918 15.273-13.96 23.156-16.286 33.01h-.388c.388-12.564-1.164-27.59-1.552-36.213l-3.49-55.92h-63.592l-.388 3.696c16.286 0 25.592 8.13 28.306 24.88l12.408 110.608h39.164L298.083 3.85h-39.55m288.88 57.151c-.388-10.346-.776-24.388 0-32.763h-.776c-2.327 6.897-12.02 27.59-16.286 37.936L516.004 96.72h33.347l-1.938-35.719zm4.265 82.032l-1.164-20.693h-46.918l-9.694 20.693h-40.715L527.25 4.097h50.02l12.796 138.937h-38.387zm-156.654 3.941c-26.755 0-44.204-8.375-57-16.012l17.837-27.344c11.633 6.405 20.163 13.549 40.714 13.549 6.592 0 12.796-1.724 16.674-7.883 5.04-9.115-1.164-13.795-15.898-22.17l-7.368-4.681c-21.714-15.027-31.408-29.068-20.938-53.949C375.636 12.719 392.698.648 421.392.648c19.775 0 38.388 8.623 49.245 16.998l-20.939 24.141c-10.47-8.375-19-12.81-29.082-12.81-8.143 0-13.959 2.957-15.898 7.145-4.265 7.883 1.164 13.056 12.408 20.2l8.919 5.665c26.367 16.505 32.571 34.242 25.98 50.5-11.245 28.33-33.735 34.488-57 34.488"/><path fill="#FAB10B" d="M177.175 271.213c97.128-41.792 233.726-79.405 414.437-41.792l1.934-45.726c-190.773-20.896-327.757 39.826-416.371 82.847v4.671"/></g></svg>